<?xml version="1.0" standalone="no"?>
<!DOCTYPE svg PUBLIC "-//W3C//DTD SVG 20010904//EN"
 "http://www.w3.org/TR/2001/REC-SVG-20010904/DTD/svg10.dtd">
<svg version="1.0" xmlns="http://www.w3.org/2000/svg"
 width="1319.000000pt" height="914.000000pt" viewBox="0 0 1319.000000 914.000000"
 preserveAspectRatio="xMidYMid meet">
<metadata>
Created by potrace 1.16, written by Peter Selinger 2001-2019
</metadata>
<g transform="translate(0.000000,914.000000) scale(0.100000,-0.100000)"
fill="#000000" stroke="none">
<path d="M6385 9089 c-204 -86 -306 -129 -410 -170 -94 -37 -403 -165 -470
-194 -16 -8 -55 -23 -85 -35 -30 -12 -68 -27 -85 -35 -16 -7 -64 -26 -105 -43
-155 -63 -276 -113 -295 -122 -11 -5 -155 -63 -321 -128 -165 -66 -320 -129
-345 -140 -24 -11 -91 -39 -149 -62 -58 -23 -118 -47 -135 -54 -16 -7 -93 -39
-170 -71 -77 -31 -149 -61 -160 -66 -11 -5 -45 -18 -75 -30 -30 -11 -68 -27
-85 -34 -16 -7 -122 -50 -235 -95 -113 -45 -225 -91 -250 -102 -83 -37 -105
-46 -175 -73 -38 -15 -79 -31 -90 -36 -58 -25 -246 -103 -360 -149 -180 -73
-194 -79 -247 -117 -55 -39 -98 -119 -98 -181 0 -95 48 -186 119 -221 36 -18
366 -151 375 -151 3 0 42 -17 88 -39 46 -21 126 -55 178 -75 52 -20 127 -50
165 -66 225 -94 585 -241 796 -326 134 -53 246 -98 248 -100 5 -4 -7 -65 -37
-199 -53 -229 -64 -352 -59 -640 3 -215 9 -294 26 -390 70 -395 195 -726 384
-1014 375 -569 971 -985 1622 -1132 50 -11 108 -24 130 -29 134 -32 298 -45
555 -45 256 1 396 12 535 44 22 5 74 17 115 26 262 59 647 228 884 387 470
317 841 798 1015 1315 175 524 197 993 70 1532 -16 68 -29 127 -29 133 0 5 17
16 38 25 20 8 61 26 90 39 29 13 55 24 57 24 5 0 220 89 280 116 17 7 92 37
168 67 l137 54 0 -453 0 -452 -65 -30 c-82 -39 -143 -100 -186 -188 l-34 -69
0 -365 0 -365 29 -62 c34 -75 95 -135 173 -170 53 -25 63 -26 229 -24 162 1
178 3 238 27 71 28 139 91 174 160 39 78 44 133 40 464 -4 275 -7 321 -23 365
-23 63 -63 123 -110 163 -39 35 -125 82 -150 82 -13 0 -15 60 -15 523 l0 523
93 33 c89 32 120 45 236 98 30 13 100 42 156 63 56 21 126 50 156 63 30 14 74
34 99 45 103 44 154 121 154 232 0 70 -16 113 -63 163 -32 35 -68 54 -202 108
-57 22 -162 66 -234 96 -71 31 -197 82 -280 114 -82 31 -195 76 -250 99 -55
23 -215 88 -355 145 -140 56 -327 133 -415 170 -88 37 -241 100 -340 140 -621
251 -764 309 -885 359 -74 30 -202 82 -285 115 -138 55 -239 96 -555 226 -185
76 -215 89 -410 171 l-185 78 -110 3 -110 3 -120 -51z m470 -345 c116 -47 289
-117 385 -155 96 -39 189 -77 205 -84 17 -8 113 -48 215 -88 102 -41 282 -114
400 -162 118 -48 265 -108 325 -132 61 -24 119 -48 130 -53 11 -5 70 -30 130
-54 180 -72 437 -177 480 -196 22 -10 184 -75 360 -145 176 -70 372 -150 435
-177 63 -28 237 -98 385 -158 149 -59 295 -118 325 -132 30 -14 72 -31 92 -37
21 -7 40 -17 44 -22 6 -11 -54 -39 -250 -115 -76 -30 -152 -60 -170 -68 -17
-8 -67 -29 -111 -46 -44 -18 -89 -36 -100 -41 -28 -12 -415 -168 -624 -251
-96 -37 -205 -82 -244 -99 -47 -21 -80 -29 -101 -26 -25 4 -542 178 -1051 354
-107 37 -332 110 -455 148 -41 13 -208 68 -370 123 -686 232 -666 227 -744
181 -98 -57 -79 -215 31 -261 21 -9 281 -96 578 -193 297 -98 576 -190 620
-206 44 -16 184 -62 310 -104 127 -41 328 -107 448 -147 119 -39 217 -75 217
-80 0 -4 -1 -8 -3 -8 -1 0 -49 -20 -107 -46 -58 -25 -167 -70 -244 -100 -76
-31 -175 -72 -220 -91 -44 -19 -116 -48 -158 -64 -43 -16 -98 -38 -122 -49
-25 -11 -49 -20 -53 -20 -7 0 -125 -47 -238 -95 -16 -7 -88 -36 -160 -64 -71
-29 -144 -59 -161 -67 -18 -8 -81 -34 -140 -58 -60 -24 -199 -81 -309 -126
-172 -70 -206 -81 -245 -77 -26 2 -119 36 -215 77 -93 40 -237 100 -320 132
-82 33 -163 66 -180 73 -175 77 -407 173 -920 380 -99 40 -236 96 -305 125
-189 79 -710 291 -935 381 -110 44 -321 130 -470 191 -505 207 -720 293 -783
313 -30 9 -16 26 35 43 40 14 59 21 108 42 17 7 39 16 50 21 11 5 74 29 140
55 66 25 134 52 152 60 17 8 34 14 37 14 3 0 28 9 54 21 75 33 82 36 177 74
50 20 99 40 110 45 25 11 288 117 335 135 61 23 144 57 187 76 23 11 45 19 48
19 3 0 25 9 48 19 23 11 78 33 122 51 44 17 94 37 110 45 17 7 55 23 85 35 30
11 69 27 87 35 17 8 33 15 36 15 3 0 34 13 69 28 82 37 128 56 208 86 36 13
90 35 120 49 31 14 80 35 110 47 30 11 64 25 75 29 11 5 56 24 100 41 44 18
98 40 120 50 22 10 87 36 145 58 91 35 315 126 375 151 56 24 100 43 205 86
63 26 129 53 145 60 17 7 77 32 135 55 58 23 119 47 135 55 17 7 66 28 110 46
44 18 91 39 105 46 51 26 99 15 315 -73z m2104 -2776 c29 -126 48 -263 62
-438 27 -332 -36 -734 -162 -1030 -199 -468 -534 -860 -959 -1121 -225 -138
-442 -228 -707 -294 -164 -40 -287 -56 -490 -62 -547 -16 -1035 119 -1464 406
-318 212 -580 501 -762 841 -92 170 -189 447 -227 649 -60 313 -50 680 26
1014 15 64 30 117 33 117 7 0 254 -100 406 -165 61 -25 182 -76 270 -111 88
-36 228 -94 310 -129 83 -34 278 -115 435 -180 334 -137 480 -198 610 -256
150 -66 221 -89 273 -89 45 0 148 34 268 88 24 11 94 40 154 65 61 25 220 91
355 147 135 57 268 111 295 122 28 11 69 29 92 39 24 11 45 19 48 19 3 0 24 8
48 19 23 10 96 40 162 66 142 57 133 53 355 144 96 40 184 76 195 80 11 5 40
18 65 30 51 25 272 119 281 120 4 1 16 -41 28 -91z m1266 -678 c61 -38 61 -39
68 -347 6 -278 6 -282 -16 -310 -32 -42 -35 -43 -132 -43 -158 0 -158 2 -153
357 4 302 4 304 81 342 53 27 110 27 152 1z"/>
<path d="M4625 5293 c-88 -19 -115 -90 -63 -165 19 -28 20 -28 139 -28 169 0
209 20 209 105 0 27 -8 44 -29 66 -29 28 -31 29 -133 28 -57 -1 -112 -3 -123
-6z"/>
<path d="M8399 5293 c-42 -6 -74 -47 -74 -95 0 -33 6 -45 33 -69 32 -29 34
-29 151 -29 133 0 173 10 190 46 29 65 -3 128 -74 144 -39 9 -174 11 -226 3z"/>
<path d="M4949 4424 c-98 -71 -119 -94 -119 -128 0 -57 75 -134 117 -119 69
25 203 145 203 182 0 38 -23 82 -51 96 -48 26 -82 19 -150 -31z"/>
<path d="M8134 4456 c-40 -18 -64 -52 -64 -90 0 -24 13 -43 60 -87 33 -32 85
-70 115 -85 l56 -27 27 20 c15 10 37 40 50 65 22 44 23 48 7 77 -18 36 -79 83
-150 117 -58 28 -60 28 -101 10z"/>
<path d="M5606 3837 c-23 -23 -56 -73 -75 -110 -28 -56 -33 -73 -25 -95 13
-37 69 -72 115 -72 34 0 41 5 69 45 17 25 45 75 62 112 31 65 31 66 13 99 -17
33 -67 64 -101 64 -9 0 -36 -19 -58 -43z"/>
<path d="M7513 3873 c-27 -5 -73 -58 -73 -83 0 -25 77 -174 106 -205 34 -37
92 -35 139 6 22 20 35 40 35 55 0 31 -32 93 -81 161 -52 70 -67 77 -126 66z"/>
<path d="M6573 3690 c-13 -5 -32 -24 -43 -42 -17 -29 -20 -51 -20 -163 0 -147
7 -168 65 -184 40 -11 88 0 116 25 17 15 19 33 19 155 0 151 -8 182 -51 205
-32 16 -54 17 -86 4z"/>
<path d="M9887 1363 l3 -758 125 -3 125 -3 0 43 c0 71 13 79 57 36 21 -20 63
-49 93 -65 51 -26 63 -28 170 -27 94 0 125 4 170 22 250 99 383 445 284 740
-75 225 -257 358 -463 338 -75 -8 -188 -56 -243 -104 -19 -18 -39 -32 -43 -32
-4 0 -4 128 0 285 l8 285 -144 0 -144 0 2 -757z m631 50 c51 -29 106 -101 123
-163 20 -69 16 -196 -7 -252 -50 -121 -128 -182 -234 -181 -70 1 -117 20 -165
68 -60 60 -76 109 -76 225 1 110 5 138 32 191 18 37 80 98 121 120 61 33 140
30 206 -8z"/>
<path d="M7795 2084 c-80 -16 -194 -70 -243 -114 -60 -55 -162 -204 -162 -235
0 -2 39 -25 88 -51 48 -26 95 -54 105 -63 17 -14 20 -14 30 1 93 130 145 181
209 205 51 18 137 15 185 -6 94 -43 127 -181 71 -303 -30 -64 -73 -112 -440
-484 l-238 -241 0 -97 0 -96 520 0 520 0 0 126 0 126 -310 -4 c-170 -2 -310 0
-310 3 0 4 98 105 218 225 206 207 252 261 316 378 66 120 72 278 15 395 -98
199 -312 286 -574 235z"/>
<path d="M9186 2053 c-21 -26 -100 -143 -383 -567 l-253 -380 0 -97 c0 -77 3
-98 15 -103 8 -3 159 -4 334 -3 l319 2 7 -101 c4 -55 5 -123 4 -150 l-3 -49
142 -3 142 -3 0 149 0 149 53 7 c28 3 69 6 89 6 l37 0 3 99 c2 54 2 106 0 114
-3 13 -21 17 -90 19 l-87 3 -5 460 -5 460 -152 3 c-136 2 -154 1 -167 -15z
m36 -640 l-2 -268 -178 -5 c-97 -3 -179 -4 -182 -2 -2 2 2 14 10 27 41 67 345
515 350 515 3 0 4 -120 2 -267z"/>
<path d="M12132 1948 l3 -123 348 -3 c191 -1 347 -6 347 -11 0 -13 -19 -54
-226 -499 -19 -40 -34 -75 -34 -77 0 -3 -25 -57 -55 -120 -30 -64 -55 -119
-55 -122 0 -3 -13 -33 -29 -67 -52 -109 -141 -309 -141 -318 0 -4 69 -8 153
-8 l152 0 39 93 c89 210 422 956 487 1092 40 84 44 97 47 188 l4 97 -521 0
-522 0 3 -122z"/>
<path d="M515 1683 c-149 -20 -299 -113 -387 -240 -107 -156 -117 -408 -25
-588 43 -82 148 -185 228 -223 150 -71 334 -73 484 -7 57 25 153 101 184 144
l21 29 -106 71 -105 71 -30 -35 c-17 -19 -55 -46 -85 -61 -48 -23 -63 -26
-125 -22 -85 6 -136 37 -186 112 -44 64 -56 116 -51 211 6 103 35 170 98 229
102 96 249 89 352 -17 l39 -40 32 30 c18 16 60 51 95 77 34 26 62 52 62 57 0
22 -115 120 -174 149 -97 48 -215 67 -321 53z"/>
<path d="M2790 1683 c-85 -16 -139 -45 -227 -126 l-42 -38 -7 70 -7 71 -123 0
-124 0 0 -530 0 -530 135 0 134 0 3 343 3 342 25 45 c54 95 175 139 250 88 20
-13 46 -45 60 -73 l25 -50 3 -347 3 -348 134 0 135 0 0 329 c0 403 2 414 109
483 89 56 188 30 234 -62 21 -44 22 -56 25 -397 l3 -353 133 0 134 0 7 268
c15 512 -5 627 -126 736 -56 51 -99 68 -196 74 -132 8 -203 -20 -312 -122 -40
-37 -55 -47 -59 -36 -11 32 -105 119 -150 138 -49 21 -139 33 -182 25z"/>
<path d="M4557 1679 c-59 -14 -136 -57 -187 -105 -54 -50 -60 -47 -60 37 l0
49 -127 0 -128 0 0 -563 c1 -309 2 -646 3 -749 l2 -188 141 0 140 0 -3 275
c-2 151 0 275 5 275 4 0 7 -5 7 -10 0 -11 120 -91 155 -104 50 -19 132 -25
195 -15 138 21 244 94 323 219 62 100 79 160 84 305 6 154 -9 233 -63 335 -72
137 -186 218 -337 239 -89 12 -97 12 -150 0z m79 -244 c70 -20 125 -71 160
-147 26 -56 29 -74 29 -158 0 -85 -3 -101 -29 -153 -51 -101 -132 -157 -223
-157 -128 1 -231 111 -248 265 -7 65 8 183 28 218 20 36 80 98 112 114 67 35
101 39 171 18z"/>
<path d="M1430 1665 c-95 -22 -253 -105 -266 -139 -5 -13 101 -176 114 -176 4
0 27 14 52 30 71 48 142 70 221 70 101 0 147 -29 188 -120 33 -72 29 -86 -25
-94 -26 -3 -70 -6 -98 -6 -75 0 -212 -25 -281 -51 -165 -62 -232 -153 -223
-306 5 -89 21 -125 81 -190 63 -69 125 -96 230 -101 129 -7 202 15 283 85 35
29 66 53 69 53 3 0 5 -27 5 -60 l0 -60 125 0 125 0 0 379 c0 352 -1 383 -20
445 -35 113 -118 196 -233 232 -68 22 -273 27 -347 9z m330 -664 c0 -69 -17
-116 -57 -152 -58 -55 -129 -75 -208 -60 -115 21 -143 146 -50 217 49 37 112
53 223 53 l92 1 0 -59z"/>
<path d="M6720 1671 c-94 -19 -210 -103 -245 -177 -71 -150 -19 -320 123 -397
27 -15 112 -47 188 -71 113 -37 145 -52 172 -79 40 -41 42 -79 6 -112 -58 -53
-198 -41 -342 31 -52 25 -95 44 -96 42 -1 -1 -31 -40 -66 -86 l-64 -83 30 -24
c98 -81 262 -135 405 -135 275 0 429 123 429 343 0 85 -30 158 -83 203 -45 38
-177 98 -274 123 -147 39 -184 63 -185 121 -1 21 7 40 25 57 51 52 208 38 312
-28 25 -16 51 -29 58 -29 7 0 27 23 46 51 19 27 47 64 62 82 l28 32 -21 22
c-33 35 -147 90 -225 107 -73 16 -218 20 -283 7z"/>
<path d="M5289 1653 c0 -4 0 -172 1 -373 1 -396 7 -452 55 -535 53 -90 148
-155 246 -168 111 -15 257 38 328 119 22 25 43 45 48 45 4 0 10 -31 13 -68 l5
-68 128 -3 127 -3 2 451 c1 247 3 485 3 528 l0 77 -142 3 -143 3 0 -333 c0
-303 -2 -337 -19 -374 -24 -52 -53 -80 -116 -110 -97 -46 -189 -18 -235 71
l-25 50 0 345 -1 345 -137 3 c-75 1 -137 -1 -138 -5z"/>
<path d="M10990 1655 c0 -3 4 -13 10 -23 22 -39 382 -956 387 -986 4 -23 -3
-48 -22 -87 -62 -123 -99 -149 -215 -149 -48 0 -72 -4 -74 -13 -2 -6 -13 -50
-25 -97 -12 -47 -23 -94 -24 -104 -3 -26 37 -37 148 -38 197 -1 308 69 403
257 33 64 63 137 196 480 47 121 132 339 191 484 58 145 105 267 105 272 0 5
-64 9 -143 9 l-143 0 -33 -102 c-18 -57 -58 -173 -89 -258 -30 -85 -68 -191
-83 -235 -16 -44 -29 -90 -29 -102 0 -63 -25 -6 -110 250 -51 155 -106 319
-123 365 l-29 82 -149 0 c-82 0 -149 -2 -149 -5z"/>
</g>
</svg>
